<svg height="480pt" viewBox="0 0 480 480.7109" width="480pt" xmlns="http://www.w3.org/2000/svg" xmlns:xlink="http://www.w3.org/1999/xlink"><linearGradient id="a"><stop offset="0" stop-color="#f9a86d"/><stop offset=".503" stop-color="#f05361"/><stop offset="1" stop-color="#b72563"/></linearGradient><linearGradient id="b" gradientTransform="matrix(1.000605 0 0 -1.000605 .35345 472.262214)" gradientUnits="userSpaceOnUse" x1="-17.5265" x2="503.5456" xlink:href="#a" y1="384.9116" y2="384.9116"/><linearGradient id="c" gradientTransform="matrix(1.000605 0 0 -1.000605 .35345 472.262214)" gradientUnits="userSpaceOnUse" x1="-17.5265" x2="503.5456" xlink:href="#a" y1="135.4789" y2="135.4789"/><linearGradient id="d" gradientTransform="matrix(1.000605 0 0 -1.000605 .35345 472.262214)" gradientUnits="userSpaceOnUse" x1="-17.5265" x2="503.5456" xlink:href="#a" y1="311.7366" y2="311.7366"/><linearGradient id="e" gradientTransform="matrix(1.000605 0 0 -1.000605 .35345 472.262214)" gradientUnits="userSpaceOnUse" x1="-17.5265" x2="503.5456" xlink:href="#a" y1="167.526" y2="167.526"/><linearGradient id="f" gradientTransform="matrix(1.000605 0 0 -1.000605 .35345 472.262214)" gradientUnits="userSpaceOnUse" x1="-17.5265" x2="503.5456" xlink:href="#a" y1="359.8097" y2="359.8097"/><linearGradient id="g" gradientTransform="matrix(1.000605 0 0 -1.000605 .35345 472.262214)" gradientUnits="userSpaceOnUse" x1="-17.5265" x2="503.5456" xlink:href="#a" y1="71.3851" y2="71.3851"/><linearGradient id="h" gradientTransform="matrix(1.000605 0 0 -1.000605 .35345 472.262214)" gradientUnits="userSpaceOnUse" x1="-17.5265" x2="503.5456" xlink:href="#a" y1="351.7951" y2="351.7951"/><linearGradient id="i" gradientTransform="matrix(1.000605 0 0 -1.000605 .35345 472.262214)" gradientUnits="userSpaceOnUse" x1="-17.5265" x2="503.5456" xlink:href="#a" y1="287.7014" y2="287.7014"/><path d="m288.953125 85.519531 22.445313 29.925781 38.480468-28.859374-9.621094-12.828126-25.652343 19.242188-25.652344-34.207031-30.464844 40.617187 12.828125 9.621094zm0 0" fill="url(#b)"/><path d="m321.019531 200.421875v40.082031h-280.582031c-22.125.027344-40.054688 17.957032-40.082031 40.082032v144.300781c0 4.425781 3.589843 8.015625 8.015625 8.015625h40.085937v40.082031c0 4.429687 3.585938 8.015625 8.015625 8.015625h192.398438c4.425781 0 8.015625-3.585938 8.015625-8.015625v-168.347656h120.25c4.425781 0 8.015625-3.589844 8.015625-8.019531v-96.199219c0-4.425781-3.589844-8.015625-8.015625-8.015625h-48.101563c-4.425781 0-8.015625 3.589844-8.015625 8.019531zm-208.429687 56.113281h80.164062v32.066406h-80.164062zm-96.199219 160.332032v-80.164063h32.066406v40.082031c0 4.425782 3.585938 8.015625 8.015625 8.015625h40.082032v32.066407zm272.5625-128.265626h-40.082031c-4.429688 0-8.019532 3.589844-8.019532 8.015626v168.347656h-176.363281v-32.066406h40.085938c4.425781 0 8.015625-3.585938 8.015625-8.015626v-48.097656c0-4.429687-3.589844-8.019531-8.015625-8.019531h-40.085938v-72.148437c0-4.425782-3.589843-8.015626-8.015625-8.015626-4.429687 0-8.015625 3.589844-8.015625 8.015626v24.050781h-32.066406v-40.082031c.011719-13.277344 10.773437-24.035157 24.046875-24.050782h56.117188v40.082032c0 4.429687 3.589843 8.019531 8.015624 8.019531h96.199219c4.429688 0 8.019531-3.589844 8.019531-8.019531v-40.082032h80.164063zm48.097656-40.082031v-40.082031h32.066407v80.164062h-64.132813v-32.066406h24.050781c4.429688 0 8.015625-3.589844 8.015625-8.015625zm0 0" fill="url(#c)"/><path d="m313.003906 128.269531h-32.066406c-13.277344.015625-24.035156 10.773438-24.050781 24.050781v16.03125c.015625 13.277344 10.773437 24.035157 24.050781 24.050782h32.066406c4.425782 0 8.015625-3.589844 8.015625-8.015625v-48.101563c0-4.425781-3.589843-8.015625-8.015625-8.015625zm-8.019531 48.101563h-24.046875c-4.425781-.007813-8.011719-3.59375-8.019531-8.019532v-16.03125c.007812-4.425781 3.59375-8.011718 8.019531-8.015624h24.046875zm0 0" fill="url(#d)"/><path d="m457.300781 152.320312h-24.050781v-8.015624c0-4.429688-3.585938-8.019532-8.015625-8.019532h-48.097656c-.84375.035156-1.675781.203125-2.464844.5-13.007813-12.019531-33.296875-11.21875-45.3125 1.789063-12.019531 13.007812-11.21875 33.292969 1.789063 45.3125 12.285156 11.351562 31.238281 11.351562 43.523437 0 .789063.296875 1.621094.464843 2.464844.496093h48.097656c4.429687 0 8.015625-3.585937 8.015625-8.015624v-8.015626h24.050781c4.425781.003907 8.011719 3.589844 8.015625 8.015626v304.628906h16.035156v-304.625c-.015624-13.277344-10.773437-24.035156-24.050781-24.050782zm-104.214843 24.050782c-8.855469 0-16.035157-7.179688-16.035157-16.035156 0-8.851563 7.179688-16.03125 16.035157-16.03125 8.851562 0 16.03125 7.179687 16.03125 16.03125-.007813 8.851562-7.179688 16.027343-16.03125 16.035156zm64.132812-8.015625h-32.066406v-16.035157h32.066406zm0 0" fill="url(#e)"/><path d="m203.839844.617188c-2.996094-1.25-6.449219-.5625005-8.738282 1.738281l-29.714843 29.714843h-92.882813c-4.425781 0-8.015625 3.589844-8.015625 8.019532v176.363281c0 4.425781 3.589844 8.015625 8.015625 8.015625h160.332032c4.429687 0 8.015624-3.589844 8.015624-8.015625v-208.429687c0-4.429688-3.585937-8.0156255-8.015624-8.0156255-2.125 0-4.164063.8437495-5.667969 2.3476565l-18.382813 18.378906v-12.710937c0-3.242188-1.949218-6.164063-4.945312-7.40625zm-11.085938 207.820312h-80.164062v-48.101562h80.164062zm32.066406 0h-16.03125v-56.117188c0-4.429687-3.589843-8.015624-8.019531-8.015624h-96.199219c-4.425781 0-8.015624 3.585937-8.015624 8.015624v56.117188h-16.03125v-112.234375h144.296874zm0-181.0625v52.796875h-144.296874v-32.066406h88.179687c2.128906 0 4.164063-.847657 5.667969-2.347657l18.382812-18.382812v12.714844c0 4.425781 3.589844 8.015625 8.015625 8.015625 2.125 0 4.164063-.84375 5.667969-2.347657zm0 0" fill="url(#f)"/><path d="m144.65625 432.898438c17.707031 0 32.066406-14.355469 32.066406-32.066407 0-17.707031-14.359375-32.066406-32.066406-32.066406-17.710938 0-32.066406 14.359375-32.066406 32.066406.019531 17.703125 14.363281 32.046875 32.066406 32.066407zm0-48.097657c8.855469 0 16.03125 7.179688 16.03125 16.03125 0 8.855469-7.179688 16.035157-16.03125 16.035157-8.855469 0-16.035156-7.179688-16.035156-16.035157.007812-8.847656 7.183594-16.023437 16.035156-16.03125zm0 0" fill="url(#g)"/><path d="m112.589844 112.238281h16.03125v16.03125h-16.03125zm0 0" fill="url(#h)"/><path d="m176.722656 112.238281h16.03125v16.03125h-16.03125zm0 0" fill="url(#h)"/><path d="m144.65625 187.707031 16.03125 16.03125 21.699219-21.699219-11.335938-11.335937-10.363281 10.363281-16.03125-16.03125-21.703125 21.699219 11.335937 11.335937zm0 0" fill="url(#i)"/></svg>