<?xml version="1.0" encoding="utf-8"?>
<!-- Generator: Adobe Illustrator 17.0.0, SVG Export Plug-In . SVG Version: 6.00 Build 0)  -->
<!DOCTYPE svg PUBLIC "-//W3C//DTD SVG 1.1//EN" "http://www.w3.org/Graphics/SVG/1.1/DTD/svg11.dtd">
<svg version="1.1" id="Layer_1" xmlns="http://www.w3.org/2000/svg" xmlns:xlink="http://www.w3.org/1999/xlink" x="0px" y="0px"
	 width="500px" height="300px" viewBox="0 0 500 300" enable-background="new 0 0 500 300" xml:space="preserve">
<linearGradient id="SVGID_1_" gradientUnits="userSpaceOnUse" x1="133.8579" y1="158.4811" x2="383.1402" y2="158.4811">
	<stop  offset="0" style="stop-color:#A1DBF7"/>
	<stop  offset="0.1052" style="stop-color:#9BD2F1"/>
	<stop  offset="0.2753" style="stop-color:#8CBDE2"/>
	<stop  offset="0.4892" style="stop-color:#769ECC"/>
	<stop  offset="0.7384" style="stop-color:#5B79B2"/>
	<stop  offset="1" style="stop-color:#3A5499"/>
</linearGradient>
<path fill="url(#SVGID_1_)" d="M370.357,110.008c-2.345-3.484-4.938-6.707-7.735-9.668l0.045,0.023
	c0,0-45.901-52.266-123.668-66.717l0.041,0.021c-21.253-4.882-44.808-1.108-64.803,12.345
	c-19.979,13.44-32.348,33.815-35.846,55.321c-15.869,77.252,15.017,139.322,15.198,139.687c1.686,3.696,3.687,7.3,6.024,10.772
	c19.063,28.334,54.335,39.572,86.734,30.428c0,0,52.472-12.896,111.353-71.365l-0.003,0.002
	C385.54,184.188,391.697,141.728,370.357,110.008z"/>
<linearGradient id="SVGID_2_" gradientUnits="userSpaceOnUse" x1="119.2641" y1="136.858" x2="368.5464" y2="136.858">
	<stop  offset="0" style="stop-color:#A43F97"/>
	<stop  offset="0.2124" style="stop-color:#9D4198"/>
	<stop  offset="0.5558" style="stop-color:#8D459A"/>
	<stop  offset="0.9851" style="stop-color:#704A9E"/>
	<stop  offset="1" style="stop-color:#6F4A9E"/>
</linearGradient>
<path opacity="0.7" fill="url(#SVGID_2_)" d="M355.763,88.385c-2.345-3.484-4.939-6.707-7.735-9.668l0.045,0.023
	c0,0-45.901-52.266-123.669-66.717l0.041,0.021c-21.253-4.882-44.808-1.108-64.803,12.345
	c-19.979,13.44-32.348,33.815-35.846,55.321c-15.869,77.252,15.017,139.322,15.198,139.687c1.686,3.696,3.687,7.3,6.024,10.772
	c19.063,28.334,54.334,39.572,86.734,30.428c0,0,52.472-12.896,111.353-71.365l-0.004,0.002
	C370.946,162.565,377.103,120.105,355.763,88.385z"/>
<radialGradient id="SVGID_3_" cx="275.0009" cy="117.4911" r="197.3964" fx="141.5732" fy="262.9642" gradientTransform="matrix(1.0457 0 0 1 -41.399 0)" gradientUnits="userSpaceOnUse">
	<stop  offset="0" style="stop-color:#A43F97"/>
	<stop  offset="0.1449" style="stop-color:#964399"/>
	<stop  offset="0.4401" style="stop-color:#704A9E"/>
	<stop  offset="0.4486" style="stop-color:#6F4A9E"/>
	<stop  offset="0.546" style="stop-color:#654D9C"/>
	<stop  offset="0.8359" style="stop-color:#48529A"/>
	<stop  offset="1" style="stop-color:#3A5499"/>
</radialGradient>
<path opacity="0.8" fill="url(#SVGID_3_)" d="M339.54,178.717c0-3.801-0.319-7.529-0.923-11.166l0.021,0.041
	c0,0-8.061-62.417-59.142-112.541l0.02,0.035c-13.489-14.398-33.077-23.461-54.881-23.461c-21.787,0-41.361,9.048-54.849,23.426
	c-50.929,49.978-59.092,112.172-59.139,112.537c-0.602,3.625-0.918,7.342-0.918,11.129c0,30.898,20.802,57.148,49.743,66.646
	c0,0,45.903,16.82,119.634,2.666h-0.003C313.474,242.071,339.54,213.305,339.54,178.717z"/>
</svg>
